<svg width="54" height="55" viewBox="0 0 54 55" fill="none" xmlns="http://www.w3.org/2000/svg">
  <path fill-rule="evenodd" clip-rule="evenodd"
    d="M27 54.5C41.9117 54.5 54 42.4117 54 27.5C54 12.5883 41.9117 0.5 27 0.5C12.0883 0.5 0 12.5883 0 27.5C0 42.4117 12.0883 54.5 27 54.5ZM11.0552 32.9815C10.9598 32.0544 11.7243 31.2969 12.6562 31.2969L27.4219 31.2969L42.1875 31.2969C43.1195 31.2969 43.884 32.0544 43.7886 32.9815C43.4033 36.7262 41.7419 40.2451 39.056 42.931C35.9704 46.0166 31.7855 47.75 27.4219 47.75C23.0582 47.75 18.8733 46.0165 15.7878 42.931C13.1019 40.2451 11.4405 36.7262 11.0552 32.9815ZM23.4981 21.1719C24.0342 21.1719 24.4775 20.734 24.3831 20.2063C24.1871 19.1104 23.6604 18.0918 22.8624 17.2938C21.8339 16.2653 20.4389 15.6875 18.9844 15.6875C17.5298 15.6875 16.1349 16.2653 15.1063 17.2938C14.3083 18.0918 13.7817 19.1104 13.5857 20.2063C13.4913 20.734 13.9346 21.1719 14.4706 21.1719C15.0067 21.1719 15.4284 20.7294 15.5734 20.2133C15.7363 19.6337 16.0458 19.0998 16.479 18.6665C17.1435 18.0021 18.0447 17.6288 18.9844 17.6288C19.9241 17.6288 20.8253 18.0021 21.4897 18.6665C21.923 19.0998 22.2324 19.6337 22.3954 20.2133C22.5404 20.7294 22.962 21.1719 23.4981 21.1719ZM40.4143 20.2063C40.5087 20.734 40.0654 21.1719 39.5294 21.1719C38.9933 21.1719 38.5716 20.7294 38.4266 20.2133C38.2637 19.6337 37.9542 19.0998 37.521 18.6665C36.8565 18.0021 35.9553 17.6288 35.0156 17.6288C34.0759 17.6288 33.1747 18.0021 32.5103 18.6665C32.077 19.0998 31.7676 19.6337 31.6046 20.2133C31.4596 20.7294 31.038 21.1719 30.5019 21.1719C29.9658 21.1719 29.5225 20.734 29.6169 20.2063C29.8129 19.1104 30.3396 18.0918 31.1376 17.2938C32.1661 16.2653 33.5611 15.6875 35.0156 15.6875C36.4702 15.6875 37.8651 16.2653 38.8937 17.2938C39.6917 18.0918 40.2183 19.1104 40.4143 20.2063Z"
    fill="url(#paint0_linear_366_6)" />
  <defs>
    <linearGradient id="paint0_linear_366_6" x1="27" y1="0.5" x2="27" y2="54.5" gradientUnits="userSpaceOnUse">
      <stop stop-color="#81FBB8" />
      <stop offset="1" stop-color="#28C76F" />
    </linearGradient>
  </defs>
</svg>